# File created by Blade
# Date/Time:  Wed Jan 21 14:37:15 2015
# Frame Rate: 120.000 fps
#------------------------------------------------------
:FULLY-SPECIFIED
:DEGREES
410
root 18.486448 35.567692 -21.132921 -176.600760 -3.708691 -179.037948
Spine -15.769866 -0.311875 3.566127
Head 7.637745 -0.903107 -5.757353
LeftShoulder 21.388226 -54.430165 -0.541800
LeftArm 62.507389 40.288436 -51.669278
LeftForeArm 23.077428 -0.000000 12.265558
LeftHand 0.086723 -0.000000 -4.857902
LeftHandThumb1 -26.253704 0.000000 33.147579
RightShoulder 14.750408 -2.367874 -1.977074
RightArm 58.093844 -36.163911 45.852692
RightForeArm 43.471260 -0.000000 86.988258
RightHand -5.773737 -0.000000 0.702727
RightHandThumb1 -24.326973 -0.000000 -32.862282
LeftUpLeg 2.459640 11.885927 1.473645
LeftLeg -5.638171 -0.000000 0.000000
LeftFoot -18.901461 28.535708 -10.849088
LeftToeBase 27.060512 -0.000000 -0.000000
RightUpLeg 2.258210 -10.849113 0.432742
RightLeg -2.993071 -0.000000 0.000000
RightFoot -19.769625 -26.640026 13.311731
RightToeBase 24.003128 -0.000000 -0.000000
411
root 18.485407 35.566648 -21.144754 -176.559911 -3.804943 -179.031528
Spine -15.813703 -0.384897 3.490830
Head 7.518505 -0.876696 -5.623406
LeftShoulder 22.355157 -54.874115 -0.852982
LeftArm 62.589839 40.368152 -52.766871
LeftForeArm 22.940938 -0.000000 12.534796
LeftHand 0.165013 -0.000000 -4.396977
LeftHandThumb1 -26.253704 0.000000 33.147579
RightShoulder 14.743437 -2.302937 -1.758854
RightArm 57.879997 -36.037985 46.391130
RightForeArm 43.604662 -0.000000 87.860819
RightHand -5.124754 0.000000 0.678795
RightHandThumb1 -24.326973 -0.000000 -32.862282
LeftUpLeg 2.426996 11.826211 1.479627
LeftLeg -5.645537 -0.000000 0.000000
LeftFoot -18.900425 28.507599 -10.813768
LeftToeBase 27.136502 -0.000000 -0.000000
RightUpLeg 2.281174 -10.851724 0.443916
RightLeg -3.054158 -0.000000 0.000000
RightFoot -19.776757 -26.693697 13.356938
RightToeBase 23.994846 -0.000000 -0.000000
412
root 18.484584 35.565058 -21.155385 -176.500624 -3.897107 -179.020277
Spine -15.873851 -0.439711 3.410943
Head 7.391539 -0.913413 -5.479829
LeftShoulder 23.386865 -55.406699 -1.219885
LeftArm 62.459456 40.447224 -54.064901
LeftForeArm 23.099121 -0.000000 12.850909
LeftHand 0.149510 -0.000000 -4.347859
LeftHandThumb1 -26.253704 0.000000 33.147579
RightShoulder 14.722342 -2.168943 -1.514133
RightArm 57.487790 -35.898906 47.089965
RightForeArm 43.833753 -0.000000 88.819352
RightHand -4.606808 -0.000000 0.733360
RightHandThumb1 -24.326973 -0.000000 -32.862282
LeftUpLeg 2.369336 11.770885 1.486892
LeftLeg -5.645038 -0.000000 0.000000
LeftFoot -18.898805 28.487382 -10.754876
LeftToeBase 27.159081 -0.000000 -0.000000
RightUpLeg 2.258139 -10.893179 0.468868
RightLeg -3.075333 -0.000000 0.000000
RightFoot -19.804682 -26.731848 13.380815
RightToeBase 24.029279 -0.000000 -0.000000
413
root 18.481809 35.564328 -21.166552 -176.470136 -3.987194 -179.008416
Spine -15.897219 -0.335394 3.295009
Head 7.296267 -1.124152 -5.355094
LeftShoulder 24.644287 -55.836688 -1.798411
LeftArm 62.686572 40.639417 -54.799676
LeftForeArm 23.084946 0.000000 13.345068
LeftHand 0.210343 -0.000000 -4.209706
LeftHandThumb1 -26.253704 0.000000 33.147579
RightShoulder 14.529987 -2.058155 -1.266297
RightArm 57.060743 -35.681809 47.816011
RightForeArm 44.195139 0.000000 89.791902
RightHand -4.138923 -0.000000 0.928905
RightHandThumb1 -24.326973 -0.000000 -32.862282
LeftUpLeg 2.342501 11.729638 1.494796
LeftLeg -5.645038 -0.000000 0.000000
LeftFoot -18.904201 28.451316 -10.727121
LeftToeBase 27.140655 -0.000000 -0.000000
RightUpLeg 2.265648 -10.922040 0.483441
RightLeg -3.091404 -0.000000 0.000000
RightFoot -19.817457 -26.760275 13.439418
RightToeBase 23.995248 -0.000000 -0.000000
414
root 18.480368 35.563951 -21.180073 -176.420403 -4.066093 -178.995029
Spine -15.925690 -0.471225 3.265133
Head 7.102673 -1.097953 -5.288314
LeftShoulder 25.391737 -56.372557 -2.000967
LeftArm 62.690185 40.840668 -55.771543
LeftForeArm 23.302235 -0.000000 13.998779
LeftHand 0.149543 0.000000 -4.164054
LeftHandThumb1 -26.253704 0.000000 33.147579
RightShoulder 14.515864 -1.957789 -1.070958
RightArm 56.777047 -35.528683 48.419271
RightForeArm 44.522543 -0.000000 90.773854
RightHand -3.493363 -0.000000 0.862065
RightHandThumb1 -24.326973 -0.000000 -32.862282
LeftUpLeg 2.309476 11.696622 1.503425
LeftLeg -5.663312 -0.000000 0.000000
LeftFoot -18.913057 28.422165 -10.725610
LeftToeBase 27.199402 -0.000000 -0.000000
RightUpLeg 2.261515 -10.941134 0.503347
RightLeg -3.118890 -0.000000 0.000000
RightFoot -19.834484 -26.800313 13.487373
RightToeBase 23.891878 -0.000000 -0.000000
415
root 18.480576 35.563905 -21.193389 -176.366286 -4.154325 -178.988868
Spine -15.979047 -0.660465 3.229129
Head 6.944785 -0.998770 -5.169976
LeftShoulder 25.952890 -56.723376 -2.063028
LeftArm 63.084383 41.063599 -56.282166
LeftForeArm 23.477061 -0.000000 14.665173
LeftHand 0.136784 -0.000000 -4.089265
LeftHandThumb1 -26.253704 0.000000 33.147579
RightShoulder 14.575208 -1.893390 -0.859231
RightArm 56.431015 -35.296580 49.067039
RightForeArm 44.680446 -0.000000 91.798086
RightHand -2.972707 -0.000000 0.841349
RightHandThumb1 -24.326973 -0.000000 -32.862282
LeftUpLeg 2.265270 11.650886 1.507561
LeftLeg -5.666698 -0.000000 0.000000
LeftFoot -18.908234 28.389808 -10.701816
LeftToeBase 27.189586 -0.000000 -0.000000
RightUpLeg 2.250280 -11.010164 0.519997
RightLeg -3.140923 -0.000000 0.000000
RightFoot -19.860159 -26.788283 13.530272
RightToeBase 23.962289 -0.000000 -0.000000
